<svg xmlns="http://www.w3.org/2000/svg" viewBox="0 0 1200 300" fill="none">
  <defs>
    <linearGradient id="bg" x1="0" y1="150" x2="1200" y2="150" gradientUnits="userSpaceOnUse">
      <stop offset="0%" stop-color="#3E49FC"/>
      <stop offset="40%" stop-color="#CA346E"/>
      <stop offset="70%" stop-color="#F3482A"/>
      <stop offset="100%" stop-color="#CDFFF9"/>
    </linearGradient>
    <linearGradient id="ma" gradientUnits="userSpaceOnUse" x1="328.1011" y1="549.5405" x2="378.0021" y2="492.2732">
      <stop offset="0" stop-color="#CDFFF9"/>
      <stop offset="0.451" stop-color="#F3482A"/>
      <stop offset="0.6778" stop-color="#CA346E"/>
      <stop offset="1" stop-color="#3E49FC"/>
    </linearGradient>
    <linearGradient id="mb" gradientUnits="userSpaceOnUse" x1="304.2985" y1="528.7996" x2="354.1995" y2="471.5323">
      <stop offset="0" stop-color="#CDFFF9"/>
      <stop offset="0.451" stop-color="#F3482A"/>
      <stop offset="0.6778" stop-color="#CA346E"/>
      <stop offset="1" stop-color="#3E49FC"/>
    </linearGradient>
  </defs>
  <rect width="1200" height="300" fill="url(#bg)"/>
  <rect x="3" y="3" width="1194" height="294" fill="#0a0a0f"/>
  <g transform="translate(55.5, -400) scale(1.1)">
    <polygon fill="url(#ma)" points="336.25,506.05 368.04,506.05 368.04,537.84"/>
    <polygon fill="url(#mb)" points="368.04,489.79 289.43,533.9 336.25,458"/>
    <polygon fill="url(#mb)" points="336.25,489.79 336.25,458 368.04,458 368.04,489.79"/>
    <path fill="#ffffff" d="M408.79,524.19l25.61-60.12h10.98l25.46,60.12h-10.47l-7.05-16.48h-27.31l-7.05,16.48H408.79z M429.35,498.96h21l-10.32-24.57h-0.37L429.35,498.96z"/>
    <path fill="#ffffff" d="M477.52,542v-52.18h-5.12v-10.17h10.54v7.05h3.12c1.48-2.57,3.54-4.54,6.16-5.9c2.62-1.36,5.76-2.04,9.43-2.04c4.5,0,8.32,0.95,11.47,2.86c3.14,1.91,5.54,4.59,7.2,8.05c1.66,3.46,2.49,7.55,2.49,12.25c0,4.7-0.81,8.8-2.41,12.28c-1.61,3.49-3.93,6.17-6.98,8.05c-3.04,1.88-6.69,2.82-10.95,2.82c-3.37,0-6.3-0.66-8.79-1.97c-2.5-1.31-4.42-3.18-5.75-5.6h-0.3V542H477.52z M499.86,516.4c4.16,0,7.33-1.29,9.54-3.86c2.2-2.57,3.3-6.11,3.3-10.61c0-4.5-1.1-8.04-3.3-10.61c-2.2-2.57-5.38-3.86-9.54-3.86c-3.71,0-6.68,1.06-8.91,3.19c-2.23,2.13-3.34,5-3.34,8.61v5.34c0,3.61,1.11,6.48,3.34,8.61C493.18,515.33,496.15,516.4,499.86,516.4z"/>
    <path fill="#ffffff" d="M532.07,542v-52.18h-5.12v-10.17h10.54v7.05h3.12c1.48-2.57,3.54-4.54,6.16-5.9c2.62-1.36,5.76-2.04,9.43-2.04c4.5,0,8.32,0.95,11.47,2.86c3.14,1.91,5.54,4.59,7.2,8.05c1.66,3.46,2.49,7.55,2.49,12.25c0,4.7-0.81,8.8-2.41,12.28c-1.61,3.49-3.93,6.17-6.98,8.05c-3.04,1.88-6.69,2.82-10.95,2.82c-3.37,0-6.3-0.66-8.79-1.97c-2.5-1.31-4.42-3.18-5.75-5.6h-0.3V542H532.07z M554.41,516.4c4.16,0,7.33-1.29,9.54-3.86c2.2-2.57,3.3-6.11,3.3-10.61c0-4.5-1.1-8.04-3.3-10.61c-2.2-2.57-5.38-3.86-9.54-3.86c-3.71,0-6.68,1.06-8.91,3.19c-2.23,2.13-3.34,5-3.34,8.61v5.34c0,3.61,1.11,6.48,3.34,8.61C547.73,515.33,550.7,516.4,554.41,516.4z"/>
    <path fill="#ffffff" d="M596.57,524.19c-2.72,0-4.84-0.69-6.35-2.08c-1.51-1.38-2.26-3.49-2.26-6.31v-28.28h-8.02v-7.87h8.09V466.3h9.95v13.36h11.06v7.87h-10.98v28.72h12.1v7.94H596.57z"/>
    <path fill="#ffffff" d="M621.06,474.31c-1.58,0-2.94-0.56-4.08-1.67c-1.14-1.11-1.71-2.49-1.71-4.12c0-1.58,0.56-2.94,1.67-4.08c1.11-1.14,2.49-1.71,4.12-1.71c1.58,0,2.94,0.56,4.08,1.67c1.14,1.11,1.71,2.49,1.71,4.12c0,1.58-0.56,2.94-1.67,4.08C624.07,473.75,622.7,474.31,621.06,474.31z M616.02,524.19v-44.53h10.09v44.53H616.02z"/>
    <path fill="#ffffff" d="M638.21,524.19v-34.36h-5.12v-10.17h10.54v7.05h3.41c1.38-2.52,3.33-4.46,5.83-5.83c2.5-1.36,5.53-2.04,9.09-2.04c3.51,0,6.52,0.67,9.02,2c2.5,1.34,4.51,3.34,6.05,6.01h0.22c3.27-5.34,8.36-8.02,15.29-8.02c5.59,0,9.99,1.62,13.21,4.86c3.22,3.24,4.82,7.66,4.82,13.25v27.24h-10.09v-25.46c0-7.32-3.51-10.98-10.54-10.98c-7.03,0-10.54,3.66-10.54,10.98v25.46h-10.09v-25.46c0-7.32-3.54-10.98-10.61-10.98c-3.41,0-6,0.93-7.76,2.78c-1.76,1.86-2.63,4.59-2.63,8.2v25.46H638.21z"/>
  </g>
</svg>
